<?xml version="1.0" encoding="utf-8" standalone="yes"?>
<!DOCTYPE svg PUBLIC "-//W3C//DTD SVG 1.1//EN" "http://www.w3.org/Graphics/SVG/1.1/DTD/svg11.dtd">
<svg width="708" height="492" viewBox="0 0 708 492" style="fill:none;stroke:none;fill-rule:evenodd;clip-rule:evenodd;stroke-linecap:round;stroke-linejoin:round;stroke-miterlimit:1.5;" version="1.1" xmlns="http://www.w3.org/2000/svg" xmlns:xlink="http://www.w3.org/1999/xlink"><style class="text-font-style fontImports" data-font-family="Roboto">@import url('https://fonts.googleapis.com/css2?family=Roboto:wght@400;700&amp;display=block');</style><g id="items" style="isolation: isolate"><g id="blend" style="mix-blend-mode: normal"><g id="g-root-cp_-1_Common_1ly06y51t9nhu2-fill" data-item-order="-261350" transform="translate(38, 122)"><g id="cp_-1_Common_1ly06y51t9nhu2-fill" stroke="none" fill="#969696"><g><path d="M 10 274L 22 274L 226 274L 238 274L 238 298L 10 298L 10 274ZM 34 250L 214 250L 214 262L 34 262L 34 250ZM 124 10L 238 58L 238 70L 226 70L 22 70L 10 70L 10 58L 124 10ZM 34 94L 214 94L 214 82L 34 82L 34 94ZM 22 70L 22 82L 34 82L 214 82L 226 82L 226 70L 22 70ZM 214 262L 34 262L 22 262L 22 274L 226 274L 226 262L 214 262Z"></path></g></g></g><g id="g-root-cp_1_g-1_1hi6otp1t9nimc-fill" data-item-order="-261346" transform="translate(74, 206)"><g id="cp_1_g-1_1hi6otp1t9nimc-fill" stroke="none" fill="#3cc583"><g><path d="M 22 34L 70 34L 70 142L 22 142L 22 34ZM 16 22L 76 22L 82 22L 82 10L 10 10L 10 22L 16 22ZM 76 154L 16 154L 10 154L 10 166L 82 166L 82 154L 76 154ZM 76 154L 76 142L 70 142L 22 142L 16 142L 16 154L 76 154ZM 76 22L 16 22L 16 34L 22 34L 70 34L 76 34L 76 22Z"></path></g></g></g><g id="g-root-cp_2_g-2_1hi6otp1t9nime-fill" data-item-order="-261342" transform="translate(158, 206)"><g id="cp_2_g-2_1hi6otp1t9nime-fill" stroke="none" fill="#1eabda"><g><path d="M 22 34L 70 34L 70 142L 22 142L 22 34ZM 16 22L 76 22L 82 22L 82 10L 10 10L 10 22L 16 22ZM 76 154L 16 154L 10 154L 10 166L 82 166L 82 154L 76 154ZM 76 154L 76 142L 70 142L 22 142L 16 142L 16 154L 76 154ZM 76 22L 16 22L 16 34L 22 34L 70 34L 76 34L 76 22Z"></path></g></g></g><g id="g-root-tx_estructu_1d2d6p91t9njeo-fill" data-item-order="0" transform="translate(212, 38)"><g id="tx_estructu_1d2d6p91t9njeo-fill" stroke="none" fill="#484848"><g><text style="font: bold 25px Roboto, sans-serif; white-space: pre;" font-weight="bold" font-size="25px" font-family="Roboto, sans-serif"><tspan x="11.94" y="42.6" dominant-baseline="ideographic">Estructura de Atributos</tspan></text></g></g></g><g id="g-root-ic_pand_mg2n1p1t9njer-fill" data-item-order="0" transform="translate(302, 170)"></g><g id="g-root-tx_variable_zrj5f11t9nhtt-fill" data-item-order="0" transform="translate(362, 170)"><g id="tx_variable_zrj5f11t9nhtt-fill" stroke="none" fill="#3cc583"><g><text style="font: bold 20px Roboto, sans-serif; white-space: pre;" font-weight="bold" font-size="20px" font-family="Roboto, sans-serif"><tspan x="12" y="34" dominant-baseline="ideographic">Variables Definidas</tspan></text></g></g></g><g id="g-root-tx_variable_qvw5651t9nimi-fill" data-item-order="0" transform="translate(362, 206)"><g id="tx_variable_qvw5651t9nimi-fill" stroke="none" fill="#484848"><g><text style="font: 15px Roboto, sans-serif; white-space: pre;" font-size="15px" font-family="Roboto, sans-serif"><tspan x="12" y="30.6" dominant-baseline="ideographic">Variables que representan </tspan><tspan x="12" y="48.6" dominant-baseline="ideographic">propiedades de objetos dentro de una </tspan><tspan x="12" y="66.6" dominant-baseline="ideographic">clase.</tspan></text></g></g></g><g id="g-root-ic_jeet_1qby9t91t9owzv-fill" data-item-order="0" transform="translate(302, 290)"></g><g id="g-root-tx_estadode_znsawd1t9oxzi-fill" data-item-order="0" transform="translate(362, 290)"><g id="tx_estadode_znsawd1t9oxzi-fill" stroke="none" fill="#1eabda"><g><text style="font: bold 20px Roboto, sans-serif; white-space: pre;" font-weight="bold" font-size="20px" font-family="Roboto, sans-serif"><tspan x="12" y="34" dominant-baseline="ideographic">Estado del Objeto</tspan></text></g></g></g><g id="g-root-tx_caracter_dhb9d91t9oxz5-fill" data-item-order="0" transform="translate(362, 326)"><g id="tx_caracter_dhb9d91t9oxz5-fill" stroke="none" fill="#484848"><g><text style="font: 15px Roboto, sans-serif; white-space: pre;" font-size="15px" font-family="Roboto, sans-serif"><tspan x="12" y="27.6" dominant-baseline="ideographic">Características que definen el estado </tspan><tspan x="12" y="45.6" dominant-baseline="ideographic">de un objeto.</tspan></text></g></g></g><g id="g-root-cp_-1_Common_1ly06y51t9nhu2-stroke" data-item-order="-261350" transform="translate(38, 122)"><g id="cp_-1_Common_1ly06y51t9nhu2-stroke" fill="none" stroke-linecap="round" stroke-linejoin="round" stroke-miterlimit="4" stroke="#ffffff" stroke-width="2"><g><path d="M 10 274L 22 274L 226 274L 238 274L 238 298L 10 298L 10 274ZM 34 250L 214 250L 214 262L 34 262L 34 250ZM 124 10L 238 58L 238 70L 226 70L 22 70L 10 70L 10 58L 124 10ZM 34 94L 214 94L 214 82L 34 82L 34 94ZM 22 70L 22 82L 34 82L 214 82L 226 82L 226 70L 22 70ZM 214 262L 34 262L 22 262L 22 274L 226 274L 226 262L 214 262Z"></path></g></g></g><g id="g-root-cp_1_g-1_1hi6otp1t9nimc-stroke" data-item-order="-261346" transform="translate(74, 206)"><g id="cp_1_g-1_1hi6otp1t9nimc-stroke" fill="none" stroke-linecap="round" stroke-linejoin="round" stroke-miterlimit="4" stroke="#ffffff" stroke-width="2"><g><path d="M 22 34L 70 34L 70 142L 22 142L 22 34ZM 16 22L 76 22L 82 22L 82 10L 10 10L 10 22L 16 22ZM 76 154L 16 154L 10 154L 10 166L 82 166L 82 154L 76 154ZM 76 154L 76 142L 70 142L 22 142L 16 142L 16 154L 76 154ZM 76 22L 16 22L 16 34L 22 34L 70 34L 76 34L 76 22Z"></path></g></g></g><g id="g-root-cp_2_g-2_1hi6otp1t9nime-stroke" data-item-order="-261342" transform="translate(158, 206)"><g id="cp_2_g-2_1hi6otp1t9nime-stroke" fill="none" stroke-linecap="round" stroke-linejoin="round" stroke-miterlimit="4" stroke="#ffffff" stroke-width="2"><g><path d="M 22 34L 70 34L 70 142L 22 142L 22 34ZM 16 22L 76 22L 82 22L 82 10L 10 10L 10 22L 16 22ZM 76 154L 16 154L 10 154L 10 166L 82 166L 82 154L 76 154ZM 76 154L 76 142L 70 142L 22 142L 16 142L 16 154L 76 154ZM 76 22L 16 22L 16 34L 22 34L 70 34L 76 34L 76 22Z"></path></g></g></g><g id="g-root-tx_estructu_1d2d6p91t9njeo-stroke" data-item-order="0" transform="translate(212, 38)"></g><g id="g-root-ic_pand_mg2n1p1t9njer-stroke" data-item-order="0" transform="translate(302, 170)"><g id="ic_pand_mg2n1p1t9njer-stroke" fill="none" stroke-linecap="round" stroke-linejoin="round" stroke-miterlimit="4" stroke="#484848" stroke-width="2"><g><path d="M 18 23L 23 23L 23 57L 18 57ZM 27 28L 32 28L 32 33L 27 33ZM 27 13L 32 13L 32 24L 27 24ZM 32 48L 27 48L 27 37L 32 37ZM 50 45L 45 45L 45 11L 50 11ZM 41 40L 36 40L 36 35L 41 35ZM 41 55L 36 55L 36 44L 41 44ZM 36 20L 41 20L 41 31L 36 31Z"></path></g></g></g><g id="g-root-tx_variable_zrj5f11t9nhtt-stroke" data-item-order="0" transform="translate(362, 170)"></g><g id="g-root-tx_variable_qvw5651t9nimi-stroke" data-item-order="0" transform="translate(362, 206)"></g><g id="g-root-ic_jeet_1qby9t91t9owzv-stroke" data-item-order="0" transform="translate(302, 290)"><g id="ic_jeet_1qby9t91t9owzv-stroke" fill="none" stroke-linecap="round" stroke-linejoin="round" stroke-miterlimit="4" stroke="#484848" stroke-width="2"><g><path d="M 27 34C 27.000002 37.865993 30.134008 41 34 41C 37.865993 41 41 37.865993 41 34C 41 30.134008 37.865993 27.000002 34 27.000002C 30.134008 27.000002 27.000002 30.134008 27.000002 34M 49 26C 48.476749 26.001589 47.954918 26.054508 47.442001 26.158001C 45.196777 24.712742 43.287258 22.803223 41.841999 20.557999C 42.482944 17.38102 41.143749 14.131229 38.4506 12.328184C 35.757454 10.525141 32.242546 10.525141 29.549398 12.328184C 26.856251 14.131229 25.517056 17.38102 26.158001 20.557999C 24.712742 22.803223 22.803223 24.712742 20.557999 26.157999C 17.38102 25.517056 14.131229 26.856251 12.328184 29.549398C 10.525141 32.242546 10.525141 35.757454 12.328184 38.4506C 14.131229 41.143749 17.38102 42.482944 20.557999 41.841999C 22.803223 43.287258 24.712742 45.196777 26.157999 47.441998C 25.517056 50.61898 26.856251 53.868771 29.549398 55.671814C 32.242546 57.474861 35.757454 57.474861 38.4506 55.671814C 41.143749 53.868771 42.482944 50.61898 41.841999 47.442001C 43.287258 45.196777 45.196777 43.287258 47.441998 41.841999C 50.43325 42.445404 53.50724 41.294586 55.366825 38.87516C 57.22641 36.455742 57.547668 33.189148 56.195034 30.453817C 54.8424 27.718485 52.051491 25.990875 49 26Z"></path></g></g></g><g id="g-root-tx_estadode_znsawd1t9oxzi-stroke" data-item-order="0" transform="translate(362, 290)"></g><g id="g-root-tx_caracter_dhb9d91t9oxz5-stroke" data-item-order="0" transform="translate(362, 326)"></g></g></g><path id="wmdku0t1spfvv0" d="M65.283 12.757a.35.35 0 0 0 .584.157l5.203-5.141-6.183 3.523.396 1.461zm-2.216-11.7a.35.35 0 0 0-.522.305v3.111l3.276-1.868-2.754-1.548zm3.728 2.105l-4.25 2.421v2.445l6.391-3.644-2.141-1.222zm4.708 3.303a.35.35 0 0 0 0-.609l-1.592-.9-7.365 4.199v1.782a.35.35 0 0 0 .523.305l8.435-4.777z M44.542 2.513c0-.433.355-.783.792-.783s.792.35.792.783-.355.783-.792.783-.792-.35-.792-.783zm59.171 0c0-.433.355-.783.792-.783s.792.35.792.783-.355.783-.792.783-.792-.35-.792-.783zm-85.951 7.636h-1.27v-.487c-.276.201-.864.609-1.881.609-1.202 0-2.274-.794-2.137-2.078.118-1.106 1.153-1.584 1.848-1.727l2.17-.345c0-.539-.29-.956-1.064-1.006s-1.21.305-1.571 1.017l-1.124-.605c1.218-2.631 5.029-1.764 5.029.414v4.207zm-1.27-2.86c.006.396-.062 1.112-.819 1.59-.587.37-1.841.299-1.903-.395-.049-.555.461-.791.906-.898l1.816-.297zm72.662 2.86h-1.27v-.487c-.276.201-.864.609-1.881.609-1.202 0-2.274-.794-2.137-2.078.118-1.106 1.153-1.584 1.848-1.727l2.17-.345c0-.539-.29-.956-1.064-1.006s-1.21.305-1.571 1.017l-1.124-.605c1.218-2.631 5.029-1.764 5.029.414v4.207zm-1.27-2.86c.006.396-.062 1.112-.82 1.59-.587.37-1.841.299-1.903-.395-.049-.555.461-.791.906-.898l1.816-.297zM99.096 10.149H97.85v-8.45h1.246v4.895l2.68-2.559h1.738l-2.633 2.535 2.715 3.578h-1.556l-2.077-2.707-.867.844v1.863zm6.053-6.114h-1.255v6.113h1.255V4.035zm-59.2 0h-1.255v6.113h1.255V4.035zm5.584 6.113V1.697h1.255v2.695c.361-.346 1-.485 1.47-.485 1.452 0 2.477 1.082 2.457 2.448v3.792h-1.27v-3.68c0-.408-.214-1.339-1.315-1.339-.968 0-1.342.756-1.342 1.339v3.681h-1.255zm-4.76-4.894V4.039h.621a.45.45 0 0 0 .45-.45v-.855h1.251v1.305h1.309v1.215h-1.309v3.109c0 .293.105.664.648.664.365 0 .531-.035.736-.07v1.137s-.361.113-.857.113c-1.398 0-1.777-1.051-1.777-1.788V5.254h-1.071zM36.528 4.039h-1.394l2.191 6.106h1.125l1.234-3.918 1.238 3.918h1.129l2.188-6.106h-1.383l-1.359 3.93-1.256-3.93h-1.124l-1.242 3.957-1.348-3.957zM26.212 7.141c-.02 1.566 1.187 3.129 3.223 3.129 1.566 0 2.383-.918 2.734-1.719L31.172 8c-.315.399-.801 1.094-1.738 1.094-1.145 0-1.825-.781-1.891-1.52h4.625c.074-.284.148-.995-.03-1.559-.336-1.064-1.221-2.102-2.839-2.102s-3.088 1.152-3.088 3.227zm1.363-.75h3.348c-.055-.43-.566-1.301-1.623-1.301a1.79 1.79 0 0 0-1.725 1.301zm-8.758.75c.038 1.758 1.277 3.133 3.145 3.133 1.074 0 1.723-.477 1.961-.672v.547h1.242V1.703h-1.258v2.888c-.414-.36-1.062-.68-1.93-.68-1.91 0-3.198 1.473-3.16 3.23zm1.309-.08c0 1.119.723 1.978 1.836 1.978a1.88 1.88 0 0 0 1.94-1.904c0-1.371-1.011-1.99-1.972-1.99s-1.805.798-1.805 1.916zm76.683-.028C96.771 5.275 95.532 3.9 93.664 3.9c-1.074 0-1.723.477-1.961.672v-.547h-1.242v8.22h1.258V9.583c.414.36 1.063.68 1.93.68 1.91 0 3.198-1.473 3.16-3.23zm-1.309.08c0-1.119-.723-1.978-1.836-1.978a1.88 1.88 0 0 0-1.94 1.904c0 1.371 1.011 1.99 1.972 1.99S95.5 8.231 95.5 7.113zM106.441 10.173V4.036h1.254v.382c.361-.346 1-.485 1.47-.485 1.452 0 2.477 1.082 2.457 2.448v3.792h-1.27V6.492c0-.408-.214-1.339-1.315-1.339-.969 0-1.342.756-1.342 1.339v3.681h-1.254zm-30.383-.021V1.824h1.084l4.215 5.777V1.824h1.32v8.328h-1.094l-4.207-5.796v5.796h-1.319zM5.24 10.149H4V2.377h1.014l2.664 3.597 2.654-3.592h1.03v7.766h-1.256V4.762L7.678 8.068 5.24 4.742v5.407z" transform="translate(572, 458)" fill="#80808088" stroke="none"></path></svg>