<?xml version="1.0" encoding="utf-8" standalone="yes"?>
<!DOCTYPE svg PUBLIC "-//W3C//DTD SVG 1.1//EN" "http://www.w3.org/Graphics/SVG/1.1/DTD/svg11.dtd">
<svg width="672" height="612" viewBox="0 0 672 612" style="fill:none;stroke:none;fill-rule:evenodd;clip-rule:evenodd;stroke-linecap:round;stroke-linejoin:round;stroke-miterlimit:1.5;" version="1.1" xmlns="http://www.w3.org/2000/svg" xmlns:xlink="http://www.w3.org/1999/xlink"><style class="text-font-style fontImports" data-font-family="Shantell Sans">@import url('https://fonts.googleapis.com/css2?family=Shantell+Sans:wght@300..800&amp;display=block');</style><g id="items" style="isolation: isolate"><g id="blend" style="mix-blend-mode: normal"><g id="g-root-cp_0_g-0_24cb11q7jjeq-fill" data-item-order="-321974" transform="translate(241.00027465820312, 99.990234375)"><g id="cp_0_g-0_24cb11q7jjeq-fill" stroke="none" fill="#ebebeb"><g><path d="M 182 96L 182 140.61C 173.29 132.9 163.55 126.35 153 121.19L 153 97.06C 153 64.21 125.72 37.33 92.92 39.08C 62.92 40.69 39 65.6 39 96L 39 121.19C 28.45 126.35 18.71 132.9 10 140.61L 10 96C 10 48.5 48.5 10 96 10C 119.75 10 141.25 19.62 156.81 35.19C 172.38 50.75 182 72.25 182 96Z"></path></g></g><g id="cp_0_g-0_24cb11q7jjeq-fill" stroke="none" fill="#ebebeb"><g><path d="M 167 237.509766C 167 276.998166 134.9884 309.009766 95.5 309.009766C 56.0116 309.009766 24 276.998166 24 237.509766C 24 198.021366 56.0116 166.009766 95.5 166.009766C 134.9884 166.009766 167 198.021366 167 237.509766Z"></path></g></g><g id="cp_0_g-0_24cb11q7jjeq-fill" stroke="none" fill="#ebebeb"><g><path d="M 96.2 166.530166C 110.5815 166.499966 124.6312 170.849566 136.48 179.000166L 170.9 131.630166C 148.9395 116.185766 122.7291 107.933266 95.8816 108.010266C 69.0341 108.087266 42.8715 116.490066 21 132.060166L 55.36 179.420166C 67.3192 171.016466 81.5834 166.514366 96.2 166.530166Z"></path></g></g></g><g id="g-root-cp_2_g-2_1q7le191q7jk0e-fill" data-item-order="-321970" transform="translate(326.29296875, 347.37109375)"><g id="cp_2_g-2_1q7le191q7jk0e-fill" stroke="none" fill="#c8ffe5"><g><path d="M 78.88 10C 74.6113 24.85 65.6277 37.9085 53.2853 47.2041C 40.9428 56.4997 25.9114 61.528 10.46 61.53L 10 61.53L 10 120.07L 10.46 120.07C 38.2795 120.0685 65.3618 111.1256 87.7119 94.5607C 110.0619 77.9958 126.4961 54.686 134.59 28.07L 78.88 10Z"></path></g></g></g><g id="g-root-cp_3_g-3_1lrrvwt1q7jkso-fill" data-item-order="-321966" transform="translate(202.54299926757812, 347.10009765625)"><g id="cp_3_g-3_1lrrvwt1q7jkso-fill" stroke="none" fill="#ffd9d8"><g><path d="M 65.71 10L 10 28.1C 18.0369 54.6952 34.397 78.0089 56.6737 94.6115C 78.9503 111.2141 105.9672 120.229 133.75 120.33L 133.75 61.79C 118.3302 61.6896 103.3597 56.5859 91.0897 47.2463C 78.8197 37.9067 69.9134 24.8362 65.71 10Z"></path></g></g></g><g id="g-root-cp_4_g-4_1hckuvh1q7jif6-fill" data-item-order="-321962" transform="translate(197, 222.041015625)"><g id="cp_4_g-4_1hckuvh1q7jif6-fill" stroke="none" fill="#fff8b6"><g><path d="M 68.5626 115.67C 68.5559 104.2271 71.3116 92.9518 76.5954 82.8019C 81.8793 72.652 89.5352 63.9276 98.9126 57.37L 64.5026 10C 42.3995 25.7494 25.7864 48.0282 16.9975 73.7059C 8.2087 99.3837 7.6859 127.1698 15.5026 153.16L 71.2126 135.06C 69.4426 128.7491 68.5509 122.2244 68.5626 115.67Z"></path></g></g></g><g id="g-root-cp_1_g-1_18gxuml1q7jj7w-fill" data-item-order="-321958" transform="translate(367.03302001953125, 221.60888671875)"><g id="cp_1_g-1_18gxuml1q7jj7w-fill" stroke="none" fill="#f5e0ff"><g><path d="M 40.91 116.1C 40.9083 122.7505 39.976 129.368 38.14 135.76L 93.85 153.86C 101.7771 127.7237 101.2625 99.7536 92.3794 73.9266C 83.4964 48.0996 66.697 25.7305 44.37 10L 10 57.38C 19.5388 63.9163 27.3394 72.6805 32.7256 82.9128C 38.1119 93.1451 40.9212 104.5366 40.91 116.1Z"></path></g></g></g><g id="g-root-tx_fundamen_1414ci51q7jk06-fill" data-item-order="0" transform="translate(140, 38)"><g id="tx_fundamen_1414ci51q7jk06-fill" stroke="none" fill="#484848"><g><text style="font: bold 20px &quot;Shantell Sans&quot;, cursive; white-space: pre;" font-weight="bold" font-size="20px" font-family="'Shantell Sans', cursive"><tspan x="13.74" y="35.6" dominant-baseline="ideographic">Fundamentos del Encapsulamiento</tspan></text></g></g></g><g id="g-root-tx_mtodospb_i09nwt1q7dx50-fill" data-item-order="0" transform="translate(86, 206)"><g id="tx_mtodospb_i09nwt1q7dx50-fill" stroke="none" fill="#e0cb15"><g><text style="font: bold 11.7px &quot;Shantell Sans&quot;, cursive; white-space: pre;" font-weight="bold" font-size="11.7px" font-family="'Shantell Sans', cursive"><tspan x="14.3" y="28.4" dominant-baseline="ideographic">Métodos </tspan><tspan x="18.6" y="42.4" dominant-baseline="ideographic">Públicos</tspan></text></g></g></g><g id="g-root-tx_ocultaci_4gozf11q7cj5u-fill" data-item-order="0" transform="translate(506, 206)"><g id="tx_ocultaci_4gozf11q7cj5u-fill" stroke="none" fill="#ba5de5"><g><text style="font: bold 11.7px &quot;Shantell Sans&quot;, cursive; white-space: pre;" font-weight="bold" font-size="11.7px" font-family="'Shantell Sans', cursive"><tspan x="12" y="27.4" dominant-baseline="ideographic">Ocultación de </tspan><tspan x="12" y="41.4" dominant-baseline="ideographic">Detalles </tspan><tspan x="12" y="55.4" dominant-baseline="ideographic">Internos</tspan></text></g></g></g><g id="g-root-tx_utilizar_4pfmml1q7dvk6-fill" data-item-order="0" transform="translate(38, 248)"><g id="tx_utilizar_4pfmml1q7dvk6-fill" stroke="none" fill="#484848"><g><text style="font: 10px &quot;Shantell Sans&quot;, cursive; white-space: pre;" font-size="10px" font-family="'Shantell Sans', cursive"><tspan x="35.63" y="22.8" dominant-baseline="ideographic">Utilizar métodos </tspan><tspan x="26.45" y="34.8" dominant-baseline="ideographic">públicos (getters y </tspan><tspan x="54.36" y="46.8" dominant-baseline="ideographic">setters) para </tspan><tspan x="14.03" y="58.8" dominant-baseline="ideographic">controlar el acceso y </tspan><tspan x="27.34" y="70.8" dominant-baseline="ideographic">la modificación de </tspan><tspan x="69.66" y="82.8" dominant-baseline="ideographic">atributos.</tspan></text></g></g></g><g id="g-root-ic_conf_1qf368d1q7dwy0-fill" data-item-order="0" transform="translate(158, 254)"></g><g id="g-root-ic_view_hunaz11q7jj7z-fill" data-item-order="0" transform="translate(458, 254)"></g><g id="g-root-tx_ocultarl_1hbbzv11q7ci6k-fill" data-item-order="0" transform="translate(506, 260)"><g id="tx_ocultarl_1hbbzv11q7ci6k-fill" stroke="none" fill="#484848"><g><text style="font: 10px &quot;Shantell Sans&quot;, cursive; white-space: pre;" font-size="10px" font-family="'Shantell Sans', cursive"><tspan x="12" y="22.8" dominant-baseline="ideographic">Ocultar la </tspan><tspan x="12" y="34.8" dominant-baseline="ideographic">complejidad interna </tspan><tspan x="12" y="46.8" dominant-baseline="ideographic">de un objeto para </tspan><tspan x="12" y="58.8" dominant-baseline="ideographic">mantener la claridad </tspan><tspan x="12" y="70.8" dominant-baseline="ideographic">y la seguridad.</tspan></text></g></g></g><g id="g-root-ic_safe_zqx7bh1q7fc3p-fill" data-item-order="0" transform="translate(290, 290)"></g><g id="g-root-tx_atributo_1ut193h1q7dx5b-fill" data-item-order="0" transform="translate(110, 410)"><g id="tx_atributo_1ut193h1q7dx5b-fill" stroke="none" fill="#e55753"><g><text style="font: bold 11.7px &quot;Shantell Sans&quot;, cursive; white-space: pre;" font-weight="bold" font-size="11.7px" font-family="'Shantell Sans', cursive"><tspan x="21.6" y="28.4" dominant-baseline="ideographic">Atributos </tspan><tspan x="26.84" y="42.4" dominant-baseline="ideographic">Privados</tspan></text></g></g></g><g id="g-root-tx_interfaz_hv9v7x1q7dwxx-fill" data-item-order="0" transform="translate(470, 416)"><g id="tx_interfaz_hv9v7x1q7dwxx-fill" stroke="none" fill="#3cc583"><g><text style="font: bold 11.7px &quot;Shantell Sans&quot;, cursive; white-space: pre;" font-weight="bold" font-size="11.7px" font-family="'Shantell Sans', cursive"><tspan x="12" y="29.4" dominant-baseline="ideographic">Interfaz Pública</tspan></text></g></g></g><g id="g-root-ic_find_znstvx1q7dwqy-fill" data-item-order="0" transform="translate(194, 434)"></g><g id="g-root-ic_beep_zkoggd1q7chdy-fill" data-item-order="0" transform="translate(422, 434)"></g><g id="g-root-tx_declarar_1d2dpot1q7dwcp-fill" data-item-order="0" transform="translate(74, 452)"><g id="tx_declarar_1d2dpot1q7dwcp-fill" stroke="none" fill="#484848"><g><text style="font: 10px &quot;Shantell Sans&quot;, cursive; white-space: pre;" font-size="10px" font-family="'Shantell Sans', cursive"><tspan x="27.75" y="22.8" dominant-baseline="ideographic">Declarar atributos </tspan><tspan x="20.68" y="34.8" dominant-baseline="ideographic">como privados para </tspan><tspan x="39.9" y="46.8" dominant-baseline="ideographic">evitar el acceso </tspan><tspan x="60.74" y="58.8" dominant-baseline="ideographic">directo y la </tspan><tspan x="49.76" y="70.8" dominant-baseline="ideographic">manipulación.</tspan></text></g></g></g><g id="g-root-tx_proporci_1upwvnx1q7dvyn-fill" data-item-order="0" transform="translate(470, 446)"><g id="tx_proporci_1upwvnx1q7dvyn-fill" stroke="none" fill="#484848"><g><text style="font: 10px &quot;Shantell Sans&quot;, cursive; white-space: pre;" font-size="10px" font-family="'Shantell Sans', cursive"><tspan x="12" y="22.8" dominant-baseline="ideographic">Proporcionar una </tspan><tspan x="12" y="34.8" dominant-baseline="ideographic">interfaz clara y </tspan><tspan x="12" y="46.8" dominant-baseline="ideographic">accesible para la </tspan><tspan x="12" y="58.8" dominant-baseline="ideographic">interacción con el </tspan><tspan x="12" y="70.8" dominant-baseline="ideographic">objeto.</tspan></text></g></g></g><g id="g-root-cp_0_g-0_24cb11q7jjeq-stroke" data-item-order="-321974" transform="translate(241.00027465820312, 99.990234375)"><g id="cp_0_g-0_24cb11q7jjeq-stroke" fill="none" stroke-linecap="round" stroke-linejoin="round" stroke-miterlimit="4" stroke="#ffffff" stroke-width="2"><g><path d="M 182 96L 182 140.61C 173.29 132.9 163.55 126.35 153 121.19L 153 97.06C 153 64.21 125.72 37.33 92.92 39.08C 62.92 40.69 39 65.6 39 96L 39 121.19C 28.45 126.35 18.71 132.9 10 140.61L 10 96C 10 48.5 48.5 10 96 10C 119.75 10 141.25 19.62 156.81 35.19C 172.38 50.75 182 72.25 182 96Z"></path></g></g><g id="cp_0_g-0_24cb11q7jjeq-stroke" fill="none" stroke-linecap="round" stroke-linejoin="round" stroke-miterlimit="4" stroke="#ffffff" stroke-width="2"><g><path d="M 167 237.509766C 167 276.998166 134.9884 309.009766 95.5 309.009766C 56.0116 309.009766 24 276.998166 24 237.509766C 24 198.021366 56.0116 166.009766 95.5 166.009766C 134.9884 166.009766 167 198.021366 167 237.509766Z"></path></g></g><g id="cp_0_g-0_24cb11q7jjeq-stroke" fill="none" stroke-linecap="round" stroke-linejoin="round" stroke-miterlimit="4" stroke="#ffffff" stroke-width="2"><g><path d="M 96.2 166.530166C 110.5815 166.499966 124.6312 170.849566 136.48 179.000166L 170.9 131.630166C 148.9395 116.185766 122.7291 107.933266 95.8816 108.010266C 69.0341 108.087266 42.8715 116.490066 21 132.060166L 55.36 179.420166C 67.3192 171.016466 81.5834 166.514366 96.2 166.530166ZM 94.66026 150.009766C 95.04516 150.676466 96.00736 150.676466 96.39226 150.009766L 104.18656 136.509766C 104.57146 135.843066 104.09026 135.009766 103.32046 135.009766L 87.73206 135.009766C 86.96226 135.009766 86.48116 135.843066 86.86606 136.509766L 94.66026 150.009766Z"></path></g></g></g><g id="g-root-cp_2_g-2_1q7le191q7jk0e-stroke" data-item-order="-321970" transform="translate(326.29296875, 347.37109375)"><g id="cp_2_g-2_1q7le191q7jk0e-stroke" fill="none" stroke-linecap="round" stroke-linejoin="round" stroke-miterlimit="4" stroke="#ffffff" stroke-width="2"><g><path d="M 78.88 10C 74.6113 24.85 65.6277 37.9085 53.2853 47.2041C 40.9428 56.4997 25.9114 61.528 10.46 61.53L 10 61.53L 10 120.07L 10.46 120.07C 38.2795 120.0685 65.3618 111.1256 87.7119 94.5607C 110.0619 77.9958 126.4961 54.686 134.59 28.07L 78.88 10Z"></path></g></g></g><g id="g-root-cp_3_g-3_1lrrvwt1q7jkso-stroke" data-item-order="-321966" transform="translate(202.54299926757812, 347.10009765625)"><g id="cp_3_g-3_1lrrvwt1q7jkso-stroke" fill="none" stroke-linecap="round" stroke-linejoin="round" stroke-miterlimit="4" stroke="#ffffff" stroke-width="2"><g><path d="M 65.71 10L 10 28.1C 18.0369 54.6952 34.397 78.0089 56.6737 94.6115C 78.9503 111.2141 105.9672 120.229 133.75 120.33L 133.75 61.79C 118.3302 61.6896 103.3597 56.5859 91.0897 47.2463C 78.8197 37.9067 69.9134 24.8362 65.71 10Z"></path></g></g></g><g id="g-root-cp_4_g-4_1hckuvh1q7jif6-stroke" data-item-order="-321962" transform="translate(197, 222.041015625)"><g id="cp_4_g-4_1hckuvh1q7jif6-stroke" fill="none" stroke-linecap="round" stroke-linejoin="round" stroke-miterlimit="4" stroke="#ffffff" stroke-width="2"><g><path d="M 68.5626 115.67C 68.5559 104.2271 71.3116 92.9518 76.5954 82.8019C 81.8793 72.652 89.5352 63.9276 98.9126 57.37L 64.5026 10C 42.3995 25.7494 25.7864 48.0282 16.9975 73.7059C 8.2087 99.3837 7.6859 127.1698 15.5026 153.16L 71.2126 135.06C 69.4426 128.7491 68.5509 122.2244 68.5626 115.67Z"></path></g></g></g><g id="g-root-cp_1_g-1_18gxuml1q7jj7w-stroke" data-item-order="-321958" transform="translate(367.03302001953125, 221.60888671875)"><g id="cp_1_g-1_18gxuml1q7jj7w-stroke" fill="none" stroke-linecap="round" stroke-linejoin="round" stroke-miterlimit="4" stroke="#ffffff" stroke-width="2"><g><path d="M 40.91 116.1C 40.9083 122.7505 39.976 129.368 38.14 135.76L 93.85 153.86C 101.7771 127.7237 101.2625 99.7536 92.3794 73.9266C 83.4964 48.0996 66.697 25.7305 44.37 10L 10 57.38C 19.5388 63.9163 27.3394 72.6805 32.7256 82.9128C 38.1119 93.1451 40.9212 104.5366 40.91 116.1Z"></path></g></g></g><g id="g-root-tx_fundamen_1414ci51q7jk06-stroke" data-item-order="0" transform="translate(140, 38)"></g><g id="g-root-tx_mtodospb_i09nwt1q7dx50-stroke" data-item-order="0" transform="translate(86, 206)"></g><g id="g-root-tx_ocultaci_4gozf11q7cj5u-stroke" data-item-order="0" transform="translate(506, 206)"></g><g id="g-root-tx_utilizar_4pfmml1q7dvk6-stroke" data-item-order="0" transform="translate(38, 248)"></g><g id="g-root-ic_conf_1qf368d1q7dwy0-stroke" data-item-order="0" transform="translate(158, 254)"><g id="ic_conf_1qf368d1q7dwy0-stroke" fill="none" stroke-linecap="round" stroke-linejoin="round" stroke-miterlimit="4" stroke="#484848" stroke-width="2"><g><path d="M 10 10M 44.810501 35.701L 43.280502 34.171001C 43.280502 34.171001 43.150002 32.160999 42.586002 31.606001L 37.448502 26.535999C 36.751614 25.84824 35.631386 25.84824 34.934498 26.535999C 34.602695 26.863504 34.41592 27.310286 34.41592 27.776501C 34.41592 28.242712 34.602695 28.689493 34.934498 29.016998L 33.677498 27.776501C 32.980282 27.08955 31.860718 27.08955 31.1635 27.776501C 30.831694 28.104006 30.64492 28.550785 30.64492 29.016998C 30.64492 29.483213 30.831694 29.929995 31.163498 30.2575L 30.536499 29.6395C 29.839613 28.95174 28.719385 28.95174 28.022499 29.6395C 27.690693 29.967005 27.503922 30.413786 27.503922 30.879999C 27.503922 31.346212 27.690693 31.792994 28.022499 32.120499L 28.6525 32.741501C 27.955435 32.052753 26.834064 32.052753 26.136999 32.741501C 25.805193 33.069004 25.618422 33.515785 25.618422 33.981998C 25.618422 34.448212 25.805193 34.894993 26.136999 35.222496L 28.022501 37.0825C 27.357105 37.737236 26.982113 38.631496 26.981499 39.564999C 26.981501 40.494999 27.356501 41.387497 28.022501 42.046001C 29.77 43.771 33.008499 44.975498 35.713001 44.7985M 28.021 37.081001L 29.9065 38.941002M 29.905001 33.979L 28.648001 32.738503M 32.420498 31.497999L 31.1635 30.2575M 11.1895 20.299L 12.7195 21.829C 12.7195 21.829 12.85 23.839001 13.414 24.393999L 18.5515 29.464001C 19.248386 30.15176 20.368614 30.15176 21.0655 29.464001C 21.397305 29.136494 21.584078 28.689713 21.584078 28.223499C 21.584078 27.757286 21.397305 27.310505 21.0655 26.983L 22.3225 28.223499C 23.019718 28.910452 24.139282 28.910452 24.836502 28.223499C 25.168304 27.895994 25.355078 27.449213 25.355078 26.983C 25.355078 26.516785 25.168304 26.070005 24.8365 25.7425L 25.463501 26.3605C 26.160387 27.04826 27.280613 27.04826 27.977499 26.3605C 28.309305 26.032993 28.496077 25.586212 28.496077 25.119999C 28.496077 24.653786 28.309305 24.207005 27.977499 23.879499L 27.3475 23.258499C 28.044565 23.947247 29.165934 23.947247 29.862999 23.258499C 30.194805 22.930994 30.381577 22.484213 30.381577 22.018C 30.381577 21.551786 30.194805 21.105005 29.862999 20.7775L 27.977499 18.9175C 28.642893 18.262762 29.017887 17.368504 29.018499 16.434999C 29.018499 15.505 28.643499 14.611 27.977499 13.954C 26.23 12.229 22.99 11.0245 20.286999 11.2M 27.980501 18.919001L 26.0935 17.059M 26.094999 22.021L 27.351999 23.261499M 23.5795 24.502001L 24.8365 25.7425M 31.7185 13L 32.7145 11.8555C 32.868557 11.678761 33.091637 11.577444 33.326092 11.577732C 33.560547 11.57802 33.783379 11.679883 33.937 11.857L 35.929001 14.149C 36.12574 14.37564 36.431667 14.474922 36.723999 14.407L 39.681999 13.723001C 39.91082 13.669947 40.151405 13.718836 40.34137 13.856993C 40.531334 13.995149 40.651974 14.208964 40.672001 14.443L 40.936001 17.4685C 40.961472 17.767126 41.150341 18.02704 41.426498 18.143499L 44.2225 19.328499C 44.440056 19.419849 44.606964 19.601524 44.679588 19.826027C 44.752213 20.050528 44.723335 20.295536 44.600502 20.497L 43.035999 23.101C 42.882484 23.357269 42.882484 23.677231 43.035999 23.9335L 44.600498 26.537498C 44.723835 26.738613 44.752991 26.983624 44.680294 27.208063C 44.607594 27.432503 44.440323 27.613892 44.222496 27.704498L 43.523502 28.001501M 24.322001 43L 23.326 44.147499C 23.171946 44.324238 22.948866 44.425556 22.714409 44.42527C 22.479952 44.42498 22.257122 44.323116 22.1035 44.146L 20.1115 41.852501C 19.91457 41.626152 19.608818 41.526924 19.3165 41.594498L 16.3585 42.279999C 16.129679 42.333054 15.889096 42.284164 15.699131 42.146008C 15.509166 42.007851 15.388529 41.794037 15.3685 41.560001L 15.1045 38.5345C 15.078702 38.235992 14.889942 37.976234 14.613999 37.859497L 11.8165 36.673C 11.599646 36.581287 11.43343 36.399754 11.361136 36.175674C 11.288844 35.951599 11.317631 35.707153 11.440001 35.506001L 13.0045 32.902C 13.158614 32.645359 13.158614 32.324642 13.0045 32.068001L 11.44 29.4655C 11.317631 29.264347 11.288844 29.019901 11.361136 28.795824C 11.43343 28.571745 11.599646 28.390213 11.8165 28.2985L 12.517 28"></path></g></g></g><g id="g-root-ic_view_hunaz11q7jj7z-stroke" data-item-order="0" transform="translate(458, 254)"><g id="ic_view_hunaz11q7jj7z-stroke" fill="none" stroke-linecap="round" stroke-linejoin="round" stroke-miterlimit="4" stroke="#484848" stroke-width="2"><g><path d="M 45.036999 37.885002C 45.036999 37.885002 41.661999 44.635002 34.911999 44.635002C 28.161999 44.635002 24.786999 37.885002 24.786999 37.885002C 24.786999 37.885002 28.161999 31.135 34.911999 31.135C 41.661999 31.135 45.036999 37.885002 45.036999 37.885002ZM 31.536999 37.885002C 31.536999 39.748962 33.048038 41.260002 34.911999 41.260002C 36.775963 41.260002 38.286999 39.748962 38.286999 37.885002C 38.286999 36.021038 36.775963 34.510002 34.911999 34.510002C 33.048038 34.510002 31.536999 36.021038 31.536999 37.885002M 10.963 12.109L 21.1075 17.74C 21.545364 17.904411 21.836086 18.322289 21.837999 18.789999L 21.838001 43.365997C 21.83872 43.738106 21.655399 44.086494 21.348305 44.296627C 21.04121 44.50676 20.650078 44.551445 20.303501 44.416L 11.374 39.068501C 11.123331 38.941486 10.964694 38.685005 10.963 38.403999L 10.963 12.109C 10.963 11.694786 11.298786 11.359 11.713 11.359L 28.213001 11.359C 29.455641 11.359 30.463001 12.36636 30.463001 13.609L 30.463001 26.734001M 18.478001 27.758499L 18.478001 30.758499"></path></g></g></g><g id="g-root-tx_ocultarl_1hbbzv11q7ci6k-stroke" data-item-order="0" transform="translate(506, 260)"></g><g id="g-root-ic_safe_zqx7bh1q7fc3p-stroke" data-item-order="0" transform="translate(290, 290)"><g id="ic_safe_zqx7bh1q7fc3p-stroke" fill="none" stroke-linecap="round" stroke-linejoin="round" stroke-miterlimit="4" stroke="#969696" stroke-width="2"><g><path d="M 17.511999 11.5L 74.512001 11.5C 74.512001 11.5 80.512001 11.5 80.512001 17.5L 80.512001 71.5C 80.512001 71.5 80.512001 77.5 74.512001 77.5L 17.511999 77.5C 17.511999 77.5 11.512 77.5 11.512 71.5L 11.512 17.5C 11.512 17.5 11.512 11.5 17.511999 11.5M 17.511999 77.5L 17.511999 80.5M 74.512001 77.5L 74.512001 80.5M 20.5 59.5L 20.5 62.5C 20.5 65.813713 23.186291 68.5 26.5 68.5L 65.5 68.5C 68.813713 68.5 71.5 65.813713 71.5 62.5L 71.5 26.5C 71.5 23.186291 68.813713 20.5 65.5 20.5L 26.5 20.5C 23.186291 20.5 20.5 23.186291 20.5 26.5L 20.5 29.5M 20.511999 38.5L 20.511999 50.5M 17.511999 29.5L 23.511999 29.5L 23.511999 38.5L 17.511999 38.5ZM 17.511999 50.5L 23.511999 50.5L 23.511999 59.5L 17.511999 59.5ZM 34.012001 44.5C 34.012001 51.955841 40.056156 58 47.512001 58C 54.967846 58 61.012001 51.955841 61.012001 44.5C 61.012001 37.044159 54.967846 31 47.512001 31C 40.056156 31 34.012001 37.044159 34.012001 44.5M 40.012001 44.5C 40.012001 48.642136 43.369865 52 47.512001 52C 51.654137 52 55.012001 48.642136 55.012001 44.5C 55.012001 40.357864 51.654137 37 47.512001 37C 43.369865 37 40.012001 40.357864 40.012001 44.5M 47.512001 31L 47.512001 37M 37.966 34.953999L 42.208 39.198997M 34.012001 44.5L 40.012001 44.5M 37.966 54.046001L 42.208 49.804001M 47.512001 58L 47.512001 52M 57.057999 54.049L 52.816002 49.804001M 61.012001 44.5L 55.012001 44.5M 57.057999 34.953999L 52.816002 39.198997"></path></g></g></g><g id="g-root-tx_atributo_1ut193h1q7dx5b-stroke" data-item-order="0" transform="translate(110, 410)"></g><g id="g-root-tx_interfaz_hv9v7x1q7dwxx-stroke" data-item-order="0" transform="translate(470, 416)"></g><g id="g-root-ic_find_znstvx1q7dwqy-stroke" data-item-order="0" transform="translate(194, 434)"><g id="ic_find_znstvx1q7dwqy-stroke" fill="none" stroke-linecap="round" stroke-linejoin="round" stroke-miterlimit="4" stroke="#484848" stroke-width="2"><g><path d="M 40.75 16.75C 40.75 13.436292 38.063709 10.75 34.75 10.75L 16.75 10.75C 13.436292 10.75 10.75 13.436292 10.75 16.75L 10.75 19.75L 40.75 19.75L 40.75 16.75ZM 22.75 10.75C 18.25 10.75 18.25 16.75 18.25 16.75L 18.25 19.75M 28.75 10.75C 33.25 10.75 33.25 16.75 33.25 16.75L 33.25 19.75M 40.75 25L 40.75 19.75L 10.75 19.75L 10.75 33.25C 10.75 34.906857 12.093145 36.25 13.75 36.25L 24.25 36.25M 10.75 22.75L 22.75 22.75L 22.75 24.25C 22.75 25.906855 24.093145 27.25 25.75 27.25L 25.75 27.25C 27.406855 27.25 28.75 25.906855 28.75 24.25L 28.75 22.75L 40.75 22.75M 25.75 22.75L 25.75 24.25M 18.25 22.75L 18.25 36.25M 27.25 36.25C 27.250002 41.220566 31.279438 45.25 36.25 45.25C 41.220566 45.25 45.25 41.220566 45.25 36.25C 45.25 31.279438 41.220566 27.250002 36.25 27.250002C 31.279438 27.250002 27.250002 31.279438 27.250002 36.25ZM 40.261002 33.633999L 35.9035 39.443501C 35.707386 39.70401 35.408134 39.866913 35.082893 39.890205C 34.757648 39.913498 34.438232 39.794907 34.207001 39.564999L 31.956999 37.314999"></path></g></g></g><g id="g-root-ic_beep_zkoggd1q7chdy-stroke" data-item-order="0" transform="translate(422, 434)"><g id="ic_beep_zkoggd1q7chdy-stroke" fill="none" stroke-linecap="round" stroke-linejoin="round" stroke-miterlimit="4" stroke="#484848" stroke-width="2"><g><path d="M 37.75 18.25L 18.25 18.25L 18.25 16.75C 18.25 15.093145 19.593145 13.75 21.25 13.75L 34.75 13.75C 36.406857 13.75 37.75 15.093145 37.75 16.75ZM 37.751499 18.25L 37.751499 45.25M 18.251499 18.25L 18.251499 45.25M 40.781502 32.5L 45.218498 32.5M 40.751499 26.9695L 44.719002 25.189001M 40.751499 37.969002L 44.719002 39.750999M 15.2185 32.5L 10.7815 32.5M 15.2515 26.9695L 11.281 25.189001M 15.2515 37.969002L 11.281 39.750999M 30.25 13.75L 30.25 11.5C 30.25 11.085787 29.914213 10.75 29.5 10.75L 26.5 10.75C 26.085787 10.75 25.75 11.085787 25.75 11.5L 25.75 13.75M 24.6565 24.625C 24.6565 26.48896 26.16754 28 28.0315 28C 29.89546 28 31.4065 26.48896 31.4065 24.625C 31.4065 22.76104 29.89546 21.25 28.0315 21.25C 26.16754 21.25 24.6565 22.76104 24.6565 24.625ZM 28.0315 29.5C 25.546219 29.5 23.5315 31.514719 23.5315 34L 23.5315 37.75L 25.7815 37.75L 26.5315 44.5L 29.5315 44.5L 30.2815 37.75L 32.531502 37.75L 32.531502 34C 32.531502 31.514719 30.516781 29.5 28.0315 29.5Z"></path></g></g></g><g id="g-root-tx_declarar_1d2dpot1q7dwcp-stroke" data-item-order="0" transform="translate(74, 452)"></g><g id="g-root-tx_proporci_1upwvnx1q7dvyn-stroke" data-item-order="0" transform="translate(470, 446)"></g></g></g><path id="whxrojh1t9koap" d="M65.283 12.757a.35.35 0 0 0 .584.157l5.203-5.141-6.183 3.523.396 1.461zm-2.216-11.7a.35.35 0 0 0-.522.305v3.111l3.276-1.868-2.754-1.548zm3.728 2.105l-4.25 2.421v2.445l6.391-3.644-2.141-1.222zm4.708 3.303a.35.35 0 0 0 0-.609l-1.592-.9-7.365 4.199v1.782a.35.35 0 0 0 .523.305l8.435-4.777z M44.542 2.513c0-.433.355-.783.792-.783s.792.35.792.783-.355.783-.792.783-.792-.35-.792-.783zm59.171 0c0-.433.355-.783.792-.783s.792.35.792.783-.355.783-.792.783-.792-.35-.792-.783zm-85.951 7.636h-1.27v-.487c-.276.201-.864.609-1.881.609-1.202 0-2.274-.794-2.137-2.078.118-1.106 1.153-1.584 1.848-1.727l2.17-.345c0-.539-.29-.956-1.064-1.006s-1.21.305-1.571 1.017l-1.124-.605c1.218-2.631 5.029-1.764 5.029.414v4.207zm-1.27-2.86c.006.396-.062 1.112-.819 1.59-.587.37-1.841.299-1.903-.395-.049-.555.461-.791.906-.898l1.816-.297zm72.662 2.86h-1.27v-.487c-.276.201-.864.609-1.881.609-1.202 0-2.274-.794-2.137-2.078.118-1.106 1.153-1.584 1.848-1.727l2.17-.345c0-.539-.29-.956-1.064-1.006s-1.21.305-1.571 1.017l-1.124-.605c1.218-2.631 5.029-1.764 5.029.414v4.207zm-1.27-2.86c.006.396-.062 1.112-.82 1.59-.587.37-1.841.299-1.903-.395-.049-.555.461-.791.906-.898l1.816-.297zM99.096 10.149H97.85v-8.45h1.246v4.895l2.68-2.559h1.738l-2.633 2.535 2.715 3.578h-1.556l-2.077-2.707-.867.844v1.863zm6.053-6.114h-1.255v6.113h1.255V4.035zm-59.2 0h-1.255v6.113h1.255V4.035zm5.584 6.113V1.697h1.255v2.695c.361-.346 1-.485 1.47-.485 1.452 0 2.477 1.082 2.457 2.448v3.792h-1.27v-3.68c0-.408-.214-1.339-1.315-1.339-.968 0-1.342.756-1.342 1.339v3.681h-1.255zm-4.76-4.894V4.039h.621a.45.45 0 0 0 .45-.45v-.855h1.251v1.305h1.309v1.215h-1.309v3.109c0 .293.105.664.648.664.365 0 .531-.035.736-.07v1.137s-.361.113-.857.113c-1.398 0-1.777-1.051-1.777-1.788V5.254h-1.071zM36.528 4.039h-1.394l2.191 6.106h1.125l1.234-3.918 1.238 3.918h1.129l2.188-6.106h-1.383l-1.359 3.93-1.256-3.93h-1.124l-1.242 3.957-1.348-3.957zM26.212 7.141c-.02 1.566 1.187 3.129 3.223 3.129 1.566 0 2.383-.918 2.734-1.719L31.172 8c-.315.399-.801 1.094-1.738 1.094-1.145 0-1.825-.781-1.891-1.52h4.625c.074-.284.148-.995-.03-1.559-.336-1.064-1.221-2.102-2.839-2.102s-3.088 1.152-3.088 3.227zm1.363-.75h3.348c-.055-.43-.566-1.301-1.623-1.301a1.79 1.79 0 0 0-1.725 1.301zm-8.758.75c.038 1.758 1.277 3.133 3.145 3.133 1.074 0 1.723-.477 1.961-.672v.547h1.242V1.703h-1.258v2.888c-.414-.36-1.062-.68-1.93-.68-1.91 0-3.198 1.473-3.16 3.23zm1.309-.08c0 1.119.723 1.978 1.836 1.978a1.88 1.88 0 0 0 1.94-1.904c0-1.371-1.011-1.99-1.972-1.99s-1.805.798-1.805 1.916zm76.683-.028C96.771 5.275 95.532 3.9 93.664 3.9c-1.074 0-1.723.477-1.961.672v-.547h-1.242v8.22h1.258V9.583c.414.36 1.063.68 1.93.68 1.91 0 3.198-1.473 3.16-3.23zm-1.309.08c0-1.119-.723-1.978-1.836-1.978a1.88 1.88 0 0 0-1.94 1.904c0 1.371 1.011 1.99 1.972 1.99S95.5 8.231 95.5 7.113zM106.441 10.173V4.036h1.254v.382c.361-.346 1-.485 1.47-.485 1.452 0 2.477 1.082 2.457 2.448v3.792h-1.27V6.492c0-.408-.214-1.339-1.315-1.339-.969 0-1.342.756-1.342 1.339v3.681h-1.254zm-30.383-.021V1.824h1.084l4.215 5.777V1.824h1.32v8.328h-1.094l-4.207-5.796v5.796h-1.319zM5.24 10.149H4V2.377h1.014l2.664 3.597 2.654-3.592h1.03v7.766h-1.256V4.762L7.678 8.068 5.24 4.742v5.407z" transform="translate(536, 578)" fill="#80808088" stroke="none"></path></svg>